<svg xmlns="http://www.w3.org/2000/svg" viewBox="0 0 800 600" width="100%" height="100%">
  <defs>
    <radialGradient id="bgGlowExp" cx="50%" cy="45%" r="65%">
      <stop offset="0%" stop-color="#FFFFFF"/>
      <stop offset="60%" stop-color="#F8FAFC"/>
      <stop offset="100%" stop-color="#EDF2F7"/>
    </radialGradient>
    
    <radialGradient id="floorShadowExp" cx="50%" cy="50%" r="50%">
      <stop offset="0%" stop-color="rgba(15,23,42,0.20)"/>
      <stop offset="50%" stop-color="rgba(15,23,42,0.06)"/>
      <stop offset="100%" stop-color="rgba(15,23,42,0)"/>
    </radialGradient>

    <linearGradient id="layerTopClean" x1="0%" y1="0%" x2="100%" y2="0%">
      <stop offset="0%" stop-color="#E2E8F0"/>
      <stop offset="50%" stop-color="#FFFFFF"/>
      <stop offset="100%" stop-color="#CBD5E1"/>
    </linearGradient>

    <!-- Green FR4 PCB Board Gradient -->
    <linearGradient id="pcbGreenClean" x1="0%" y1="0%" x2="100%" y2="0%">
      <stop offset="0%" stop-color="#064E3B"/>
      <stop offset="50%" stop-color="#047857"/>
      <stop offset="100%" stop-color="#065F46"/>
    </linearGradient>
  </defs>

  <rect width="800" height="600" fill="url(#bgGlowExp)" />
  <ellipse cx="400" cy="540" rx="270" ry="22" fill="url(#floorShadowExp)" />

  <!-- ── LAYER 1: TOP SHEET-METAL LID WITH HANDLE (Lifted Up) ───────────────── -->
  <g transform="translate(180, 45)">
    <path d="M 30,50 L 70,10 L 370,10 L 410,50 Z" fill="url(#layerTopClean)" stroke="#94A3B8" stroke-width="1.5"/>
    <path d="M 170,15 L 170,-5 Q 170,-15 180,-15 L 260,-15 Q 270,-15 270,-5 L 270,15" fill="none" stroke="#64748B" stroke-width="8" stroke-linecap="round"/>
    <rect x="195" y="-20" width="50" height="10" rx="3" fill="#1E293B"/>
    <circle cx="85" cy="20" r="3" fill="#94A3B8" stroke="#475569" stroke-width="1"/>
    <circle cx="355" cy="20" r="3" fill="#94A3B8" stroke="#475569" stroke-width="1"/>
    <rect x="150" y="24" width="140" height="20" rx="3" fill="#FFFFFF" stroke="#CBD5E1" stroke-width="1"/>
    <text x="165" y="38" font-family="-apple-system, BlinkMacSystemFont, sans-serif" font-size="10" font-weight="900" fill="#0F172A">ME<tspan fill="#059669">H</tspan>AR</text>
    <text x="210" y="37" font-family="monospace" font-size="7" font-weight="bold" fill="#059669">TOP CASING</text>
  </g>

  <!-- Exploded Guide Lines -->
  <line x1="220" y1="95" x2="220" y2="150" stroke="#059669" stroke-width="1.5" stroke-dasharray="4,4"/>
  <line x1="580" y1="95" x2="580" y2="150" stroke="#059669" stroke-width="1.5" stroke-dasharray="4,4"/>

  <!-- ── LAYER 2: SMART BMS CONTROL BOARD (FR4 PCB with real components) ───── -->
  <g transform="translate(200, 140)">
    <rect x="0" y="0" width="400" height="70" rx="5" fill="url(#pcbGreenClean)" stroke="#065F46" stroke-width="1.5"/>
    
    <!-- Microcontroller Main IC Chip -->
    <rect x="30" y="20" width="35" height="35" fill="#0F172A" stroke="#334155" stroke-width="1"/>
    <circle cx="36" cy="26" r="1.5" fill="#FFFFFF"/>
    <line x1="25" y1="28" x2="30" y2="28" stroke="#CBD5E1" stroke-width="1.5"/>
    <line x1="25" y1="36" x2="30" y2="36" stroke="#CBD5E1" stroke-width="1.5"/>
    <line x1="25" y1="44" x2="30" y2="44" stroke="#CBD5E1" stroke-width="1.5"/>
    <line x1="65" y1="28" x2="70" y2="28" stroke="#CBD5E1" stroke-width="1.5"/>
    <line x1="65" y1="36" x2="70" y2="36" stroke="#CBD5E1" stroke-width="1.5"/>
    <line x1="65" y1="44" x2="70" y2="44" stroke="#CBD5E1" stroke-width="1.5"/>

    <!-- Bank of 6 High-Power MOSFET Switches on Aluminum Heatspreader -->
    <rect x="100" y="15" width="130" height="40" rx="3" fill="#334155" stroke="#1E293B" stroke-width="1"/>
    <rect x="108" y="20" width="14" height="28" fill="#0F172A"/>
    <rect x="128" y="20" width="14" height="28" fill="#0F172A"/>
    <rect x="148" y="20" width="14" height="28" fill="#0F172A"/>
    <rect x="168" y="20" width="14" height="28" fill="#0F172A"/>
    <rect x="188" y="20" width="14" height="28" fill="#0F172A"/>
    <rect x="208" y="20" width="14" height="28" fill="#0F172A"/>

    <!-- Balance Wire Harness Connector Header -->
    <rect x="250" y="22" width="60" height="26" rx="2" fill="#F8FAFC" stroke="#CBD5E1" stroke-width="1"/>
    <path d="M 260,48 Q 260,60 270,70" fill="none" stroke="#DC2626" stroke-width="1.5"/>
    <path d="M 275,48 Q 275,60 285,70" fill="none" stroke="#2563EB" stroke-width="1.5"/>
    <path d="M 290,48 Q 290,60 300,70" fill="none" stroke="#CA8A04" stroke-width="1.5"/>

    <!-- Copper Current Shunt Resistor -->
    <rect x="330" y="20" width="45" height="30" rx="3" fill="#CA8A04" stroke="#854D0E" stroke-width="1.5"/>
  </g>

  <!-- Exploded Guide Lines -->
  <line x1="220" y1="210" x2="220" y2="250" stroke="#059669" stroke-width="1.5" stroke-dasharray="4,4"/>
  <line x1="580" y1="210" x2="580" y2="250" stroke="#059669" stroke-width="1.5" stroke-dasharray="4,4"/>

  <!-- ── LAYER 3: CELL MATRIX & STRUCTURAL HOLDERS (Core Energy Module) ─────── -->
  <g transform="translate(190, 240)">
    <rect x="0" y="0" width="420" height="150" rx="6" fill="#1E293B" stroke="#0F172A" stroke-width="1.5"/>
    
    <!-- Cylindrical Cell Array in ABS Grid Holders -->
    <g transform="translate(25, 20)">
      <!-- Row 1 -->
      <circle cx="25" cy="25" r="22" fill="#E2E8F0" stroke="#94A3B8" stroke-width="1.5"/>
      <circle cx="25" cy="25" r="16" fill="#059669"/>
      <circle cx="85" cy="25" r="22" fill="#E2E8F0" stroke="#94A3B8" stroke-width="1.5"/>
      <circle cx="85" cy="25" r="16" fill="#059669"/>
      <circle cx="145" cy="25" r="22" fill="#E2E8F0" stroke="#94A3B8" stroke-width="1.5"/>
      <circle cx="145" cy="25" r="16" fill="#059669"/>
      <circle cx="205" cy="25" r="22" fill="#E2E8F0" stroke="#94A3B8" stroke-width="1.5"/>
      <circle cx="205" cy="25" r="16" fill="#059669"/>
      <circle cx="265" cy="25" r="22" fill="#E2E8F0" stroke="#94A3B8" stroke-width="1.5"/>
      <circle cx="265" cy="25" r="16" fill="#059669"/>
      <circle cx="325" cy="25" r="22" fill="#E2E8F0" stroke="#94A3B8" stroke-width="1.5"/>
      <circle cx="325" cy="25" r="16" fill="#059669"/>

      <!-- Row 2 -->
      <circle cx="25" cy="85" r="22" fill="#E2E8F0" stroke="#94A3B8" stroke-width="1.5"/>
      <circle cx="25" cy="85" r="16" fill="#059669"/>
      <circle cx="85" cy="85" r="22" fill="#E2E8F0" stroke="#94A3B8" stroke-width="1.5"/>
      <circle cx="85" cy="85" r="16" fill="#059669"/>
      <circle cx="145" cy="85" r="22" fill="#E2E8F0" stroke="#94A3B8" stroke-width="1.5"/>
      <circle cx="145" cy="85" r="16" fill="#059669"/>
      <circle cx="205" cy="85" r="22" fill="#E2E8F0" stroke="#94A3B8" stroke-width="1.5"/>
      <circle cx="205" cy="85" r="16" fill="#059669"/>
      <circle cx="265" cy="85" r="22" fill="#E2E8F0" stroke="#94A3B8" stroke-width="1.5"/>
      <circle cx="265" cy="85" r="16" fill="#059669"/>
      <circle cx="325" cy="85" r="22" fill="#E2E8F0" stroke="#94A3B8" stroke-width="1.5"/>
      <circle cx="325" cy="85" r="16" fill="#059669"/>

      <!-- Nickel Busbars with micro-welds -->
      <rect x="15" y="18" width="80" height="14" rx="2" fill="#CBD5E1" stroke="#64748B" stroke-width="1"/>
      <rect x="135" y="18" width="80" height="14" rx="2" fill="#CBD5E1" stroke="#64748B" stroke-width="1"/>
      <rect x="255" y="18" width="80" height="14" rx="2" fill="#CBD5E1" stroke="#64748B" stroke-width="1"/>
      
      <rect x="15" y="78" width="80" height="14" rx="2" fill="#CBD5E1" stroke="#64748B" stroke-width="1"/>
      <rect x="135" y="78" width="80" height="14" rx="2" fill="#CBD5E1" stroke="#64748B" stroke-width="1"/>
      <rect x="255" y="78" width="80" height="14" rx="2" fill="#CBD5E1" stroke="#64748B" stroke-width="1"/>
    </g>
  </g>

  <!-- Exploded Guide Lines -->
  <line x1="220" y1="390" x2="220" y2="425" stroke="#059669" stroke-width="1.5" stroke-dasharray="4,4"/>
  <line x1="580" y1="390" x2="580" y2="425" stroke="#059669" stroke-width="1.5" stroke-dasharray="4,4"/>

  <!-- ── LAYER 4: BOTTOM POWDER-COATED CHASSIS & MOUNTING BASE ──────────────── -->
  <g transform="translate(180, 425)">
    <rect x="10" y="0" width="440" height="85" rx="8" fill="url(#layerTopClean)" stroke="#94A3B8" stroke-width="2"/>
    
    <!-- Rubber Vibration Damping Pads -->
    <rect x="30" y="10" width="60" height="8" rx="2" fill="#0F172A"/>
    <rect x="140" y="10" width="60" height="8" rx="2" fill="#0F172A"/>
    <rect x="260" y="10" width="60" height="8" rx="2" fill="#0F172A"/>
    <rect x="370" y="10" width="60" height="8" rx="2" fill="#0F172A"/>

    <!-- Bottom Mounting Flanges with Bolt Holes -->
    <path d="M -10,65 L 10,65 L 10,80 L -10,80 Z" fill="#64748B" stroke="#334155" stroke-width="1.5"/>
    <ellipse cx="0" cy="72" rx="4" ry="2" fill="#1E293B"/>
    
    <path d="M 450,65 L 470,65 L 470,80 L 450,80 Z" fill="#64748B" stroke="#334155" stroke-width="1.5"/>
    <ellipse cx="460" cy="72" rx="4" ry="2" fill="#1E293B"/>

    <!-- Bottom MEHAR Nameplate -->
    <g transform="translate(110, 40)">
      <text x="0" y="10" font-family="-apple-system, BlinkMacSystemFont, sans-serif" font-size="12" font-weight="900" fill="#0F172A">ME<tspan fill="#059669">H</tspan>AR</text>
      <text x="50" y="10" font-family="monospace" font-size="9" font-weight="700" fill="#059669">CHASSIS BASE</text>
    </g>
  </g>
</svg>